# Blender v2.80 (sub 42) OBJ File: 'chair.blend'
# www.blender.org
mtllib chair.mtl
o Cube
v 1.000000 1.000000 -1.000000
v 1.000000 0.615387 -1.000000
v 1.000000 1.000000 1.000000
v 1.000000 0.615387 1.000000
v -1.000000 1.000000 -1.000000
v -1.000000 0.615387 -1.000000
v -1.000000 1.000000 1.000000
v -1.000000 0.615387 1.000000
v -1.000000 0.615387 0.000000
v 1.000000 1.000000 0.000000
v -1.000000 1.000000 0.000000
v 1.000000 0.615387 0.000000
v 0.000000 0.615387 -1.000000
v 0.000000 1.000000 1.000000
v 0.000000 0.615387 1.000000
v 0.000000 1.000000 -1.000000
v 0.000000 0.615387 0.000000
v 0.000000 1.000000 0.000000
v 0.675719 1.000000 -1.000000
v -0.675719 1.000000 -1.000000
v 0.675719 1.000000 0.000000
v -0.675719 1.000000 0.000000
v -0.675719 0.627084 -1.000000
v 0.675719 0.627084 -1.000000
v -0.675719 0.627084 0.000000
v 0.675719 0.627084 0.000000
v 0.675719 0.627084 1.000000
v -0.675719 0.627084 1.000000
v -0.675719 1.000000 1.000000
v 0.675719 1.000000 1.000000
v 0.675719 0.615387 -1.000000
v 0.675719 0.615387 -1.000000
v 0.675719 1.000000 -1.000000
v 0.675719 1.000000 -1.000000
v -0.675719 1.000000 0.000000
v -0.675719 1.000000 0.000000
v -0.675719 1.000000 -1.000000
v -0.675719 1.000000 -1.000000
v 0.675719 1.000000 0.000000
v 0.675719 1.000000 0.000000
v -0.675719 1.000000 1.000000
v -0.675719 1.000000 1.000000
v -0.675719 0.615387 -1.000000
v -0.675719 0.615387 -1.000000
v 0.675719 0.615387 0.000000
v 0.675719 0.615387 0.000000
v -0.675719 0.615387 0.000000
v -0.675719 0.615387 0.000000
v 0.675719 0.615387 1.000000
v 0.675719 0.615387 1.000000
v 0.675719 1.000000 1.000000
v 0.675719 1.000000 1.000000
v -0.675719 0.615387 1.000000
v -0.675719 0.615387 1.000000
v 0.675719 1.000000 -0.661392
v 0.675719 1.000000 0.661392
v 0.675719 1.000000 -0.661392
v 0.675719 1.000000 0.661392
v -0.675719 1.000000 -0.661392
v -0.675719 1.000000 0.661392
v -0.675719 1.000000 -0.661392
v -0.675719 1.000000 0.661392
v 0.675719 1.000000 -0.661392
v 0.675719 1.000000 0.661392
v -0.675719 1.000000 0.661392
v -0.675719 1.000000 -0.661392
v 0.000000 1.000000 -0.661392
v 0.000000 1.000000 0.661392
v -1.000000 1.000000 -0.661392
v -1.000000 1.000000 0.661392
v 0.675719 1.000000 0.661392
v 1.000000 1.000000 0.661392
v 1.000000 1.000000 -0.661392
v 0.675719 1.000000 0.661392
v 0.675719 1.000000 0.661392
v 0.675719 1.000000 0.661392
v 0.000000 1.000000 -0.661392
v 0.000000 1.000000 -0.661392
v 0.675719 1.000000 -0.661392
v 0.675719 1.000000 -0.661392
v 0.675719 1.000000 -0.661392
v 0.675719 1.000000 -0.661392
v 0.675719 1.000000 0.661392
v 0.675719 1.000000 0.661392
v -0.675719 1.000000 -0.661392
v -0.675719 1.000000 -0.661392
v -0.675719 1.000000 -0.661392
v -0.675719 1.000000 -0.661392
v -0.675719 1.000000 0.661392
v -0.675719 1.000000 0.661392
v -0.675719 1.000000 0.661392
v -0.675719 1.000000 0.661392
v -0.675719 1.000000 -0.661392
v -0.675719 1.000000 -0.661392
v 0.000000 1.000000 0.661392
v 0.000000 1.000000 0.661392
v 0.675719 1.000000 -0.661392
v 0.675719 1.000000 -0.661392
v 1.000000 1.000000 0.661392
v 1.000000 1.000000 0.661392
v -0.675719 1.000000 0.661392
v -0.675719 1.000000 0.661392
v -1.000000 1.000000 -0.661392
v -1.000000 1.000000 -0.661392
v -1.000000 1.000000 0.661392
v -1.000000 1.000000 0.661392
v 1.000000 1.000000 -0.661392
v 1.000000 1.000000 -0.661392
v -0.675719 3.060722 1.000000
v -0.675719 3.060722 1.000000
v 0.675719 3.060722 1.000000
v 0.675719 3.060722 0.661392
v 0.675719 3.060722 1.000000
v -0.675719 3.060722 1.000000
v 0.675719 3.060722 1.000000
v 0.000000 3.060722 1.000000
v -1.000000 3.060722 1.000000
v 1.000000 3.060722 1.000000
v 0.675719 3.060722 0.661392
v 0.675719 3.060722 0.661392
v -0.675719 3.060722 0.661392
v -0.675719 3.060722 0.661392
v 0.000000 3.060722 0.661392
v 1.000000 3.060722 0.661392
v -0.675719 3.060722 0.661392
v -1.000000 3.060722 0.661392
v 0.675719 0.619397 0.000000
v 0.675719 0.619397 0.000000
v 0.675719 0.619397 -1.000000
v 0.675719 0.619397 -1.000000
v -0.675719 -0.942021 1.000000
v -0.675719 0.619397 -1.000000
v -0.675719 0.619397 -1.000000
v -1.000000 -0.942021 1.000000
v -0.675719 0.619397 0.000000
v -0.675719 0.619397 0.000000
v 0.675719 0.619397 1.000000
v 0.675719 0.619397 1.000000
v -0.675719 -0.942021 -1.000000
v -0.675719 0.619397 1.000000
v -0.675719 0.619397 1.000000
v -1.000000 -0.942021 -1.000000
v 0.000000 0.615387 -0.657205
v 0.000000 0.615387 0.657205
v 0.675719 0.615387 -0.657205
v 0.675719 0.615387 0.657205
v 0.675719 -0.942021 -1.000000
v 1.000000 0.615387 -0.657205
v 1.000000 0.615387 0.657205
v 1.000000 -0.942021 -1.000000
v 0.675719 0.615387 -0.657205
v 0.675719 0.615387 0.657205
v 0.675719 0.615387 0.657205
v -0.675719 0.615387 -0.657205
v -0.675719 0.615387 0.657205
v 1.000000 0.615387 0.657205
v -1.000000 0.615387 0.657205
v -1.000000 0.615387 -0.657205
v 0.675719 0.615387 1.000000
v -0.675719 0.615387 -0.657205
v -0.675719 0.615387 0.657205
v 1.000000 0.615387 1.000000
v 1.000000 -0.942021 1.000000
v 1.000000 -0.942021 0.657205
v 0.675719 -0.942021 0.657205
v 0.675719 -0.942021 1.000000
v 1.000000 -0.942021 -0.657205
v 0.675719 -0.942021 -0.657205
v -1.000000 -0.942021 0.657205
v -1.000000 -0.942021 -0.657205
v -0.675719 -0.942021 -0.657205
v -0.675719 -0.942021 0.657205
vt 0.584465 0.207674
vt 0.584465 0.207674
vt 0.584465 0.207674
vt 0.584465 0.207674
vt 0.375000 0.459465
vt 0.625000 0.459465
vt 0.625000 0.459465
vt 0.375000 0.459465
vt 0.375000 0.459465
vt 0.375000 0.625000
vt 0.625000 0.625000
vt 0.625000 0.707674
vt 0.625000 0.707674
vt 0.625000 0.707674
vt 0.625000 0.750000
vt 0.375000 0.750000
vt 0.375000 0.707151
vt 0.584465 1.000000
vt 0.584465 0.875000
vt 0.584465 0.875000
vt 0.584465 1.000000
vt 0.125000 0.625000
vt 0.375000 0.625000
vt 0.375000 0.707674
vt 0.375000 0.707674
vt 0.375000 0.707674
vt 0.375000 0.750000
vt 0.125000 0.750000
vt 0.125000 0.707151
vt 0.625000 0.709465
vt 0.875000 0.709465
vt 0.875000 0.709465
vt 0.625000 0.709465
vt 0.625000 0.709465
vt 0.125000 0.500000
vt 0.375000 0.500000
vt 0.375000 0.542326
vt 0.375000 0.542326
vt 0.375000 0.542326
vt 0.125000 0.542849
vt 0.584465 0.750000
vt 0.584465 0.750000
vt 0.375000 0.500000
vt 0.625000 0.500000
vt 0.625000 0.542326
vt 0.625000 0.542326
vt 0.625000 0.542326
vt 0.375000 0.542849
vt 0.584465 0.042326
vt 0.584465 0.042326
vt 0.584465 0.042326
vt 0.584465 0.042326
vt 0.415535 0.042326
vt 0.415535 0.042326
vt 0.415535 0.042326
vt 0.415535 0.042326
vt 0.415535 0.750000
vt 0.415535 0.750000
vt 0.415535 0.875000
vt 0.415535 0.875000
vt 0.625000 0.540535
vt 0.875000 0.540535
vt 0.875000 0.540535
vt 0.625000 0.540535
vt 0.627606 0.540535
vt 0.415535 1.000000
vt 0.415535 1.000000
vt 0.375000 0.290535
vt 0.625000 0.290535
vt 0.625000 0.290535
vt 0.375000 0.290535
vt 0.377606 0.290535
vt 0.415535 0.207674
vt 0.415535 0.207674
vt 0.415535 0.207674
vt 0.415535 0.207674
vt 0.875000 0.709465
vt 0.625000 0.709465
vt 0.627606 0.709465
vt 0.584465 0.042326
vt 0.584465 0.042326
vt 0.415535 0.042326
vt 0.415535 0.042326
vt 0.584465 0.207674
vt 0.584465 0.207674
vt 0.625000 0.540535
vt 0.875000 0.540535
vt 0.625000 0.540535
vt 0.584465 0.750000
vt 0.584465 0.875000
vt 0.415535 0.750000
vt 0.415535 0.875000
vt 0.584465 1.000000
vt 0.375000 0.290535
vt 0.625000 0.290535
vt 0.375000 0.290535
vt 0.415535 1.000000
vt 0.625000 0.459465
vt 0.375000 0.459465
vt 0.377606 0.459465
vt 0.415535 0.207674
vt 0.415535 0.207674
vt 0.625000 0.625000
vt 0.875000 0.625000
vt 0.584465 0.792849
vt 0.625000 0.792849
vt 0.625000 0.875000
vt 0.584465 0.875000
vt 0.500000 0.042326
vt 0.500000 0.042326
vt 0.875000 0.750000
vt 0.625000 0.750000
vt 0.625000 0.207674
vt 0.625000 0.207674
vt 0.625000 0.042326
vt 0.625000 0.042326
vt 0.500000 0.207674
vt 0.500000 0.207674
vt 0.375000 0.042326
vt 0.375000 0.042326
vt 0.415535 0.792849
vt 0.500000 0.792849
vt 0.500000 0.875000
vt 0.415535 0.875000
vt 0.625000 0.500000
vt 0.875000 0.500000
vt 0.584465 0.792849
vt 0.584465 0.875000
vt 0.625000 0.957151
vt 0.584465 0.957151
vt 0.500000 0.957151
vt 0.415535 0.957151
vt 0.375000 0.792849
vt 0.415535 0.792849
vt 0.415535 0.875000
vt 0.375000 0.875000
vt 0.584465 0.957151
vt 0.375000 0.250000
vt 0.625000 0.250000
vt 0.625000 0.375000
vt 0.375000 0.375000
vt 0.375000 0.207674
vt 0.375000 0.207674
vt 0.415535 0.957151
vt 0.375000 0.957151
vt 0.415535 0.207674
vt 0.415535 0.207674
vt 0.415535 0.042326
vt 0.500000 0.042326
vt 0.415535 0.042326
vt 0.415535 0.207674
vt 0.584465 0.042326
vt 0.584465 0.042326
vt 0.584465 0.207674
vt 0.584465 0.207674
vt 0.584465 0.042326
vt 0.500000 0.207674
vt 0.415535 0.042326
vt 0.375000 0.207674
vt 0.584465 0.207674
vt 0.625000 0.042326
vt 0.625000 0.207674
vt 0.375000 0.042326
vt 0.625000 0.290535
vt 0.625000 0.290535
vt 0.415535 0.125000
vt 0.415535 0.125000
vt 0.500000 0.125000
vt 0.625000 0.290535
vt 0.500000 0.000000
vt 0.584465 0.000000
vt 0.415535 0.000000
vt 0.415535 0.125000
vt 0.415535 0.000000
vt 0.625000 0.459465
vt 0.625000 0.459465
vt 0.584465 0.000000
vt 0.625000 0.000000
vt 0.584465 0.125000
vt 0.584465 0.125000
vt 0.584465 0.000000
vt 0.584465 0.125000
vt 0.625000 0.459465
vt 0.584465 0.207674
vt 0.500000 0.207674
vt 0.415535 0.207674
vt 0.375000 0.125000
vt 0.415535 0.000000
vt 0.625000 0.125000
vt 0.625000 0.207674
vt 0.584465 0.207674
vt 0.415535 0.207674
vt 0.415535 0.207674
vt 0.375000 0.000000
vt 0.415535 0.250000
vt 0.415535 0.250000
vt 0.415535 0.250000
vt 0.375000 0.207674
vt 0.375000 0.250000
vt 0.584465 0.250000
vt 0.500000 0.250000
vt 0.584465 0.207674
vt 0.584465 0.250000
vt 0.584465 0.250000
vt 0.625000 0.250000
vt 0.625000 0.375000
vt 0.625000 0.500000
vt 0.625000 0.542326
vt 0.375000 0.707674
vt 0.375000 0.750000
vt 0.625000 0.250000
vt 0.584465 0.750000
vt 0.584465 1.000000
vt 0.584465 0.750000
vt 0.415535 0.750000
vt 0.415535 1.000000
vt 0.415535 0.750000
vt 0.584465 1.000000
vt 0.415535 1.000000
vt 0.500000 0.750000
vt 0.500000 1.000000
vt 0.584465 0.957151
vt 0.584465 1.000000
vt 0.415535 1.000000
vt 0.415535 0.957151
vt 0.125000 0.707151
vt 0.125000 0.750000
vt 0.125000 0.750000
vt 0.125000 0.707151
vt 0.584465 0.792849
vt 0.625000 0.792849
vt 0.415535 0.792849
vt 0.415535 0.750000
vt 0.625000 0.957151
vt 0.375000 0.290535
vt 0.375000 0.250000
vt 0.584465 0.750000
vt 0.625000 0.750000
vt 0.375000 0.750000
vt 0.375000 0.792849
vt 0.375000 0.957151
vt 0.375000 1.000000
vt 0.584465 0.957151
vt 0.625000 0.957151
vt 0.625000 1.000000
vt 0.584465 1.000000
vt 0.625000 0.540535
vt 0.625000 0.500000
vt 0.125000 0.542849
vt 0.125000 0.500000
vt 0.375000 0.500000
vt 0.375000 0.459465
vt 0.625000 0.709465
vt 0.375000 0.542849
vt 0.375000 0.707151
vt 0.375000 0.290535
vt 0.375000 0.250000
vn 0.0000 0.0000 1.0000
vn -1.0000 0.0000 0.0000
vn 1.0000 0.0000 0.0000
vn 0.0000 0.0000 -1.0000
vn 0.0000 -1.0000 0.0000
vn 0.0000 1.0000 0.0000
usemtl Material
s off
f 90/1/1 92/2/1 60/3/1 62/4/1
f 53/5/1 41/6/1 29/7/1 28/8/1 140/9/1
f 9/10/2 11/11/2 104/12/2 69/13/2 103/14/2 5/15/2 6/16/2 158/17/2
f 137/18/3 127/19/3 26/20/3 27/21/3
f 12/22/3 10/23/3 100/24/3 72/25/3 99/26/3 3/27/3 4/28/3 149/29/3
f 31/30/1 33/31/1 19/32/1 24/33/1 129/34/1
f 2/35/3 1/36/3 107/37/3 73/38/3 108/39/3 10/23/3 12/22/3 148/40/3
f 129/41/3 24/42/3 26/20/3 127/19/3
f 8/43/2 7/44/2 105/45/2 70/46/2 106/47/2 11/11/2 9/10/2 157/48/2
f 61/49/1 59/50/1 88/51/1 94/52/1
f 57/53/1 55/54/1 80/55/1 82/56/1
f 23/57/2 132/58/2 135/59/2 25/60/2
f 23/61/1 20/62/1 37/63/1 43/64/1 132/65/1
f 25/60/2 135/59/2 140/66/2 28/67/2
f 27/68/1 30/69/1 51/70/1 49/71/1 137/72/1
f 71/73/1 76/74/1 56/75/1 58/76/1
f 24/33/1 19/32/1 34/77/1 32/78/1 130/79/1
f 59/50/1 66/80/1 86/81/1 88/51/1
f 63/82/1 57/53/1 82/56/1 98/83/1
f 92/2/1 102/84/1 65/85/1 60/3/1
f 44/86/1 38/87/1 20/62/1 23/61/1 133/88/1
f 24/42/2 130/89/2 128/90/2 26/20/2
f 133/91/3 23/57/3 25/60/3 136/92/3
f 26/20/2 128/90/2 138/93/2 27/21/2
f 50/94/1 52/95/1 30/69/1 27/68/1 138/96/1
f 141/97/3 136/92/3 25/60/3 28/67/3
f 28/8/1 29/7/1 42/98/1 54/99/1 141/100/1
f 84/101/1 71/73/1 58/76/1 64/102/1
f 13/103/4 16/104/4 33/31/4 31/30/4
f 151/105/5 148/106/5 12/107/5 46/108/5
f 55/54/1 67/109/1 78/110/1 80/55/1
f 32/78/4 34/77/4 1/111/4 2/112/4
f 67/109/1 61/49/1 94/52/1 78/110/1
f 102/84/1 106/113/1 70/114/1 65/85/1
f 43/64/4 37/63/4 16/104/4 13/103/4
f 66/80/1 69/115/1 104/116/1 86/81/1
f 76/74/1 96/117/1 68/118/1 56/75/1
f 73/119/1 63/82/1 98/83/1 108/120/1
f 96/117/1 90/1/1 62/4/1 68/118/1
f 54/99/1 42/98/1 7/44/1 8/43/1
f 154/121/5 143/122/5 17/123/5 47/124/5
f 6/125/4 5/126/4 38/87/4 44/86/4
f 143/122/5 145/127/5 45/128/5 17/123/5
f 46/108/5 12/107/5 149/129/5 152/130/5
f 47/124/5 17/123/5 144/131/5 155/132/5
f 158/133/5 160/134/5 48/135/5 9/136/5
f 17/123/5 45/128/5 146/137/5 144/131/5
f 4/138/1 3/139/1 52/95/1 50/94/1
f 49/71/1 51/70/1 14/140/1 15/141/1
f 100/142/1 84/101/1 64/102/1 72/143/1
f 15/141/1 14/140/1 41/6/1 53/5/1
f 9/136/5 48/135/5 161/144/5 157/145/5
f 58/76/1 56/75/1 75/146/1 74/147/1
f 79/148/1 77/149/1 67/109/1 55/54/1
f 81/150/1 79/148/1 55/54/1 57/53/1
f 64/102/1 58/76/1 74/147/1 83/151/1
f 87/152/1 85/153/1 66/80/1 59/50/1
f 62/4/1 60/3/1 91/154/1 89/155/1
f 93/156/1 87/152/1 59/50/1 61/49/1
f 68/118/1 62/4/1 89/155/1 95/157/1
f 97/158/1 81/150/1 57/53/1 63/82/1
f 72/143/1 64/102/1 83/151/1 99/159/1
f 60/3/1 65/85/1 101/160/1 91/154/1
f 85/153/1 103/161/1 69/115/1 66/80/1
f 77/149/1 93/156/1 61/49/1 67/109/1
f 56/75/1 68/118/1 95/157/1 75/146/1
f 65/85/1 70/114/1 105/162/1 101/160/1
f 107/163/1 97/158/1 63/82/1 73/119/1
f 51/70/1 30/69/1 111/164/1 113/165/1
f 21/166/1 39/167/1 76/74/1 71/73/1
f 39/167/6 18/168/6 96/117/6 76/74/6
f 30/69/1 52/95/1 115/169/1 111/164/1
f 16/170/6 37/171/6 93/156/6 77/149/6
f 80/55/6 78/110/6 18/168/6 39/167/6
f 33/172/6 16/170/6 77/149/6 79/148/6
f 82/56/1 80/55/1 39/167/1 21/166/1
f 98/83/1 82/56/1 21/166/1 40/173/1
f 19/174/1 33/172/1 79/148/1 81/150/1
f 29/7/1 41/6/1 109/175/1 110/176/1
f 40/173/1 21/166/1 71/73/1 84/101/1
f 38/177/6 5/178/6 103/161/6 85/153/6
f 88/51/1 86/81/1 36/179/1 22/180/1
f 20/181/1 38/177/1 85/153/1 87/152/1
f 94/52/1 88/51/1 22/180/1 35/182/1
f 42/98/1 29/7/1 110/176/1 114/183/1
f 35/182/1 22/180/1 92/2/1 90/1/1
f 22/180/1 36/179/1 102/84/1 92/2/1
f 95/157/4 89/155/4 121/184/4 123/185/4
f 78/110/6 94/52/6 35/182/6 18/168/6
f 37/171/1 20/181/1 87/152/1 93/156/1
f 18/168/6 35/182/6 90/1/6 96/117/6
f 75/146/4 95/157/4 123/185/4 119/186/4
f 108/120/6 98/83/6 40/173/6 10/187/6
f 34/188/1 19/174/1 81/150/1 97/158/1
f 10/187/6 40/173/6 84/101/6 100/142/6
f 36/179/6 11/189/6 106/113/6 102/84/6
f 101/160/4 105/162/4 126/190/4 125/191/4
f 86/81/6 104/116/6 11/189/6 36/179/6
f 83/151/1 74/147/1 112/192/1 120/193/1
f 1/194/6 34/188/6 97/158/6 107/163/6
f 120/193/1 112/192/1 111/195/1 115/196/1
f 112/192/1 119/186/1 113/197/1 111/195/1
f 124/198/6 120/193/6 115/196/6 118/199/6
f 123/185/6 121/184/6 109/200/6 116/201/6
f 121/184/1 122/202/1 110/203/1 109/200/1
f 119/186/6 123/185/6 116/201/6 113/197/6
f 122/202/1 125/191/1 114/204/1 110/203/1
f 125/191/6 126/190/6 117/205/6 114/204/6
f 99/159/4 83/151/4 120/193/4 124/198/4
f 74/147/1 75/146/1 119/186/1 112/192/1
f 41/6/1 14/140/1 116/206/1 109/175/1
f 105/45/2 7/44/2 117/207/2 126/208/2
f 7/44/1 42/98/1 114/183/1 117/207/1
f 89/155/1 91/154/1 122/202/1 121/184/1
f 3/27/3 99/26/3 124/209/3 118/210/3
f 14/140/1 51/70/1 113/165/1 116/206/1
f 91/154/1 101/160/1 125/191/1 122/202/1
f 52/95/1 3/139/1 118/211/1 115/169/1
f 31/212/3 129/41/3 127/19/3 45/128/3 145/127/3
f 128/90/2 46/108/2 152/130/2 50/213/2 138/93/2
f 130/89/2 32/214/2 151/105/2 46/108/2 128/90/2
f 132/58/2 43/215/2 154/121/2 47/124/2 135/59/2
f 135/59/2 47/124/2 155/132/2 53/216/2 140/66/2
f 44/217/3 133/91/3 136/92/3 48/135/3 160/134/3
f 45/128/3 127/19/3 137/18/3 49/218/3 146/137/3
f 48/135/3 136/92/3 141/97/3 54/219/3 161/144/3
f 13/220/5 31/212/5 145/127/5 143/122/5
f 155/132/5 144/131/5 15/221/5 53/216/5
f 144/131/5 146/137/5 49/218/5 15/221/5
f 50/213/1 152/130/1 153/222/1 159/223/1
f 161/144/3 54/219/3 131/224/3 172/225/3
f 43/215/5 13/220/5 143/122/5 154/121/5
f 156/226/3 162/227/3 163/228/3 164/229/3
f 148/106/1 151/105/1 168/230/1 167/231/1
f 44/217/3 160/134/3 171/232/3 139/233/3
f 152/130/1 149/129/1 156/234/1 153/222/1
f 149/29/1 4/28/1 162/227/1 156/226/1
f 4/138/1 50/94/1 159/235/1 162/236/1
f 147/237/5 150/238/5 167/231/5 168/230/5
f 142/239/5 139/233/5 171/232/5 170/240/5
f 169/241/5 172/225/5 131/224/5 134/242/5
f 165/243/5 164/244/5 163/245/5 166/246/5
f 6/125/4 44/86/4 139/247/4 142/248/4
f 160/134/1 158/133/1 170/240/1 171/232/1
f 2/35/3 148/40/3 167/249/3 150/250/3
f 157/145/4 161/144/4 172/225/4 169/241/4
f 54/99/1 8/43/1 134/251/1 131/252/1
f 32/78/4 2/112/4 150/238/4 147/253/4
f 8/43/2 157/48/2 169/254/2 134/251/2
f 159/223/2 153/222/2 165/243/2 166/246/2
f 153/222/4 156/234/4 164/244/4 165/243/4
f 158/17/2 6/16/2 142/239/2 170/255/2
f 162/236/1 159/235/1 166/256/1 163/257/1
f 151/105/2 32/214/2 147/237/2 168/230/2
