# Blender v2.80 (sub 42) OBJ File: 'endtable.blend'
# www.blender.org
mtllib endtable.mtl
o Cube
v 0.000000 0.500000 -1.000000
v 0.500000 0.500000 -1.000000
v 0.000000 0.000000 -1.000000
v 0.500000 0.000000 -1.000000
v 0.000000 0.500000 1.000000
v 0.500000 0.500000 1.000000
v 0.000000 0.000000 1.000000
v 0.500000 0.000000 1.000000
v 1.000000 0.000000 -1.000000
v -1.000000 0.000000 1.000000
v 1.000000 0.000000 1.000000
v -1.000000 0.000000 -1.000000
v -1.000000 0.500000 1.000000
v 1.000000 0.500000 -1.000000
v 1.000000 0.500000 1.000000
v -1.000000 0.500000 -1.000000
v -0.500000 0.000000 -1.000000
v -0.500000 0.000000 1.000000
v -0.500000 0.500000 1.000000
v -0.500000 0.500000 -1.000000
v 0.500000 0.000000 0.000000
v 0.500000 0.500000 0.000000
v 0.000000 0.000000 0.000000
v 0.000000 0.500000 0.000000
v 1.000000 0.000000 0.000000
v -1.000000 0.000000 0.000000
v 1.000000 0.500000 0.000000
v -1.000000 0.500000 0.000000
v -0.500000 0.000000 0.000000
v -0.500000 0.500000 0.000000
v 0.500000 0.000000 0.500000
v 0.500000 0.500000 0.500000
v 0.000000 0.000000 0.500000
v 0.000000 0.500000 0.500000
v 1.000000 0.000000 0.500000
v 1.000000 0.500000 0.500000
v -0.500000 0.000000 0.500000
v -0.500000 0.500000 0.500000
v -1.000000 0.000000 0.500000
v -1.000000 0.500000 0.500000
v -1.000000 0.000000 -0.500000
v -1.000000 0.500000 -0.500000
v 0.500000 0.000000 -0.500000
v 0.500000 0.500000 -0.500000
v 0.000000 0.000000 -0.500000
v 0.000000 0.500000 -0.500000
v 1.000000 0.000000 -0.500000
v 1.000000 0.500000 -0.500000
v -0.500000 0.000000 -0.500000
v -0.500000 0.500000 -0.500000
v 0.500000 0.250000 1.000000
v 0.000000 0.250000 -1.000000
v 0.500000 0.250000 -1.000000
v 1.000000 0.250000 -1.000000
v 1.000000 0.250000 1.000000
v -1.000000 0.250000 -1.000000
v -1.000000 0.250000 1.000000
v 0.000000 0.250000 1.000000
v -0.500000 0.250000 1.000000
v -0.500000 0.250000 -1.000000
v -1.000000 0.250000 0.000000
v 1.000000 0.250000 0.000000
v -1.000000 0.250000 0.500000
v 1.000000 0.250000 0.500000
v 1.000000 0.250000 -0.500000
v -1.000000 0.250000 -0.500000
v 0.500000 -2.704470 0.500000
v 0.500000 -2.704470 1.000000
v 0.500000 -2.704470 -1.000000
v 1.000000 -2.704470 -1.000000
v 1.000000 -2.704470 0.500000
v 1.000000 -2.704470 1.000000
v -1.000000 -2.704470 -0.500000
v -1.000000 -2.704470 -1.000000
v -0.500000 -2.704470 1.000000
v -1.000000 -2.704470 1.000000
v -0.500000 -2.704470 -1.000000
v -0.500000 -2.704470 0.500000
v -1.000000 -2.704470 0.500000
v 0.500000 -2.704470 -0.500000
v 1.000000 -2.704470 -0.500000
v -0.500000 -2.704470 -0.500000
vt 0.468750 0.703125
vt 0.500000 0.656250
vt 0.437500 0.625000
vt 0.375000 0.687500
vt 0.531250 0.453125
vt 0.500000 0.406250
vt 0.500000 0.375000
vt 0.500000 0.437500
vt 0.531250 0.375000
vt 0.562500 0.375000
vt 0.562500 0.437500
vt 0.531250 0.437500
vt 0.437500 0.750000
vt 0.312500 0.750000
vt 0.531250 0.312500
vt 0.562500 0.312500
vt 0.781250 0.562500
vt 0.812500 0.562500
vt 0.812500 0.625000
vt 0.781250 0.625000
vt 0.781250 0.500000
vt 0.812500 0.500000
vt 0.531250 0.609375
vt 0.500000 0.562500
vt 0.468750 0.359375
vt 0.437500 0.312500
vt 0.437500 0.312500
vt 0.468750 0.359375
vt 0.562500 0.562500
vt 0.562500 0.500000
vt 0.781250 0.687500
vt 0.812500 0.687500
vt 0.812500 0.750000
vt 0.781250 0.750000
vt 0.281250 0.687500
vt 0.312500 0.687500
vt 0.281250 0.750000
vt 0.531250 0.687500
vt 0.562500 0.687500
vt 0.562500 0.750000
vt 0.531250 0.750000
vt 0.531250 0.500000
vt 0.500000 0.312500
vt 0.531250 0.250000
vt 0.562500 0.250000
vt 0.406250 0.453125
vt 0.312500 0.437500
vt 0.375000 0.375000
vt 0.437500 0.406250
vt 0.500000 0.312500
vt 0.500000 0.468750
vt 0.500000 0.437500
vt 0.531250 0.562500
vt 0.562500 0.625000
vt 0.531250 0.625000
vt 0.281250 0.562500
vt 0.312500 0.562500
vt 0.312500 0.625000
vt 0.281250 0.625000
vt 0.593750 0.703125
vt 0.562500 0.656250
vt 0.687500 0.500000
vt 0.593750 0.484375
vt 0.562500 0.468750
vt 0.625000 0.500000
vt 0.625000 0.718750
vt 0.562500 0.687500
vt 0.687500 0.750000
vt 0.656250 0.734375
vt 0.562500 0.718750
vt 0.562500 0.750000
vt 0.562500 0.500000
vt 0.750000 0.750000
vt 0.687500 0.750000
vt 0.625000 0.500000
vt 0.500000 0.500000
vt 0.625000 0.750000
vt 0.750000 0.500000
vt 0.750000 0.562500
vt 0.750000 0.562500
vt 0.750000 0.500000
vt 0.281250 0.500000
vt 0.312500 0.500000
vt 0.375000 0.500000
vt 0.406250 0.453125
vt 0.312500 0.437500
vt 0.500000 0.625000
vt 0.500000 0.687500
vt 0.250000 0.500000
vt 0.250000 0.562500
vt 0.250000 0.625000
vt 0.250000 0.687500
vt 0.500000 0.500000
vt 0.500000 0.562500
vt 0.500000 0.250000
vt 0.750000 0.625000
vt 0.750000 0.687500
vt 0.500000 0.750000
vt 0.250000 0.750000
vt 0.750000 0.750000
vt 0.562500 0.500000
vt 0.531250 0.453125
vt 0.500000 0.437500
vt 0.500000 0.500000
vt 0.500000 0.250000
vt 0.625000 0.500000
vt 0.593750 0.484375
vt 0.687500 0.500000
vt 0.375000 0.500000
vt 0.250000 0.500000
vt 0.250000 0.562500
vt 0.750000 0.750000
vt 0.750000 0.687500
vt 0.250000 0.750000
vt 0.250000 0.687500
vt 0.500000 0.750000
vt 0.500000 0.687500
vt 0.500000 0.562500
vn 0.0000 1.0000 0.0000
vn 0.0000 -1.0000 0.0000
vn 0.0000 0.0000 1.0000
vn 0.0000 0.0000 -1.0000
vn 1.0000 0.0000 0.0000
vn -1.0000 0.0000 0.0000
usemtl Material
s off
f 32/1/1 34/2/1 5/3/1 6/4/1
f 37/5/2 33/6/2 7/7/2 18/8/2
f 58/9/3 5/10/3 19/11/3 59/12/3
f 36/13/1 32/1/1 6/4/1 15/14/1
f 51/15/3 6/16/3 5/10/3 58/9/3
f 60/17/4 20/18/4 1/19/4 52/20/4
f 56/21/4 16/22/4 20/18/4 60/17/4
f 34/2/1 38/23/1 19/24/1 5/3/1
f 31/25/4 35/26/4 71/27/4 67/28/4
f 38/23/1 40/29/1 13/30/1 19/24/1
f 53/31/4 2/32/4 14/33/4 54/34/4
f 64/35/5 36/36/5 15/14/5 55/37/5
f 66/38/6 42/39/6 16/40/6 56/41/6
f 59/12/3 19/11/3 13/30/3 57/42/3
f 33/6/2 31/25/2 8/43/2 7/7/2
f 52/20/4 1/19/4 2/32/4 53/31/4
f 55/44/3 15/45/3 6/16/3 51/15/3
f 43/46/2 47/47/2 25/48/2 21/49/2
f 8/43/6 31/25/6 67/28/6 68/50/6
f 45/51/2 43/46/2 21/49/2 23/52/2
f 63/53/6 40/29/6 28/54/6 61/55/6
f 65/56/5 48/57/5 27/58/5 62/59/5
f 50/60/1 42/39/1 28/54/1 30/61/1
f 41/62/2 49/63/2 29/64/2 26/65/2
f 46/66/1 50/60/1 30/61/1 24/67/1
f 48/68/1 44/69/1 22/70/1 27/71/1
f 49/63/2 45/51/2 23/52/2 29/64/2
f 44/69/1 46/66/1 24/67/1 22/70/1
f 57/42/6 13/30/6 40/29/6 63/53/6
f 21/49/2 25/48/2 35/26/2 31/25/2
f 23/52/2 21/49/2 31/25/2 33/6/2
f 62/59/5 27/58/5 36/36/5 64/35/5
f 30/61/1 28/54/1 40/29/1 38/23/1
f 26/65/2 29/64/2 37/5/2 39/72/2
f 24/67/1 30/61/1 38/23/1 34/2/1
f 27/71/1 22/70/1 32/1/1 36/13/1
f 29/64/2 23/52/2 33/6/2 37/5/2
f 22/70/1 24/67/1 34/2/1 32/1/1
f 2/73/1 1/74/1 46/66/1 44/69/1
f 17/75/2 3/76/2 45/51/2 49/63/2
f 14/33/1 2/73/1 44/69/1 48/68/1
f 1/74/1 20/77/1 50/60/1 46/66/1
f 12/78/4 17/79/4 77/80/4 74/81/4
f 20/77/1 16/40/1 42/39/1 50/60/1
f 54/82/5 14/83/5 48/57/5 65/56/5
f 3/76/2 4/84/2 43/46/2 45/51/2
f 47/47/3 43/46/3 80/85/3 81/86/3
f 61/55/6 28/54/6 42/39/6 66/38/6
f 26/87/6 61/55/6 66/38/6 41/88/6
f 9/89/5 54/82/5 65/56/5 47/90/5
f 25/91/5 62/59/5 64/35/5 35/92/5
f 10/93/6 57/42/6 63/53/6 39/94/6
f 47/90/5 65/56/5 62/59/5 25/91/5
f 39/94/6 63/53/6 61/55/6 26/87/6
f 11/95/3 55/44/3 51/15/3 8/43/3
f 3/96/4 52/20/4 53/31/4 4/97/4
f 18/8/3 59/12/3 57/42/3 10/93/3
f 41/88/6 66/38/6 56/41/6 12/98/6
f 35/92/5 64/35/5 55/37/5 11/99/5
f 4/97/4 53/31/4 54/34/4 9/100/4
f 12/78/4 56/21/4 60/17/4 17/79/4
f 17/79/4 60/17/4 52/20/4 3/96/4
f 8/43/3 51/15/3 58/9/3 7/7/3
f 7/7/3 58/9/3 59/12/3 18/8/3
f 79/101/2 78/102/2 75/103/2 76/104/2
f 67/28/2 71/27/2 72/105/2 68/50/2
f 74/81/2 77/106/2 82/107/2 73/108/2
f 69/109/2 70/110/2 81/86/2 80/85/2
f 37/5/5 18/8/5 75/103/5 78/102/5
f 9/89/5 47/90/5 81/111/5 70/110/5
f 49/63/3 41/62/3 73/108/3 82/107/3
f 4/97/4 9/100/4 70/112/4 69/113/4
f 11/95/3 8/43/3 68/50/3 72/105/3
f 35/92/5 11/99/5 72/114/5 71/115/5
f 17/75/5 49/63/5 82/107/5 77/106/5
f 41/88/6 12/98/6 74/116/6 73/117/6
f 43/46/6 4/84/6 69/109/6 80/85/6
f 18/8/3 10/93/3 76/104/3 75/103/3
f 39/72/4 37/5/4 78/102/4 79/101/4
f 10/93/6 39/94/6 79/118/6 76/104/6
